<svg width="14" height="17" viewBox="0 0 14 17" fill="none" xmlns="http://www.w3.org/2000/svg">
<path d="M1.75 16.5C1.3375 16.5 0.984375 16.3531 0.690625 16.0594C0.396875 15.7656 0.25 15.4125 0.25 15V6C0.25 5.5875 0.396875 5.23438 0.690625 4.94063C0.984375 4.64688 1.3375 4.5 1.75 4.5H3.25C3.25 3.4625 3.61563 2.57812 4.34688 1.84687C5.07812 1.11562 5.9625 0.75 7 0.75C8.0375 0.75 8.92188 1.11562 9.65313 1.84687C10.3844 2.57812 10.75 3.4625 10.75 4.5H12.25C12.6625 4.5 13.0156 4.64688 13.3094 4.94063C13.6031 5.23438 13.75 5.5875 13.75 6V15C13.75 15.4125 13.6031 15.7656 13.3094 16.0594C13.0156 16.3531 12.6625 16.5 12.25 16.5H1.75ZM1.75 15H12.25V6H1.75V15ZM7 10.5C8.0375 10.5 8.92188 10.1344 9.65313 9.40313C10.3844 8.67188 10.75 7.7875 10.75 6.75H9.25C9.25 7.375 9.03125 7.90625 8.59375 8.34375C8.15625 8.78125 7.625 9 7 9C6.375 9 5.84375 8.78125 5.40625 8.34375C4.96875 7.90625 4.75 7.375 4.75 6.75H3.25C3.25 7.7875 3.61563 8.67188 4.34688 9.40313C5.07812 10.1344 5.9625 10.5 7 10.5ZM4.75 4.5H9.25C9.25 3.875 9.03125 3.34375 8.59375 2.90625C8.15625 2.46875 7.625 2.25 7 2.25C6.375 2.25 5.84375 2.46875 5.40625 2.90625C4.96875 3.34375 4.75 3.875 4.75 4.5Z" fill="#009F7F"/>
</svg>
